<svg xmlns:xlink="http://www.w3.org/1999/xlink" id="bookmarks-fill" xmlns="http://www.w3.org/2000/svg" width="1024"
    height="1024" viewBox="0 0 1024 1024">
    <defs>
        <linearGradient id="bgGradient-bookmarks-fill" x1="15%" y1="15%" x2="85%" y2="85%"
            gradientUnits="userSpaceOnUse">
            <stop offset="0%" style="stop-color: rgb(255, 15, 123); stop-opacity: 1;"></stop>
            <stop offset="100%" style="stop-color: rgb(248, 155, 41); stop-opacity: 1;"></stop>
        </linearGradient>
        <linearGradient id="bgGradient-bookmarks-fill" x1="15%" y1="15%" x2="85%" y2="85%"
            gradientUnits="userSpaceOnUse">
            <stop offset="0%" style="stop-color: rgb(255, 15, 123); stop-opacity: 1;"></stop>
            <stop offset="100%" style="stop-color: rgb(248, 155, 41); stop-opacity: 1;"></stop>
        </linearGradient>
    </defs>
    <path fill="url(&quot;#bgGradient-bookmarks-fill&quot;)"
        d="M844,1024H180C80.589,1024,0,943.411,0,844l0-664C0,80.589,80.589,0,180,0l664,0c99.411,0,180,80.589,180,180v664C1024,943.411,943.411,1024,844,1024z">
    </path><svg viewBox="0 0 16 16" width="610" aria-hidden="true" focusable="false" fill="#F4F4F4"
        xmlns="http://www.w3.org/2000/svg" filter="none" stroke="#000000" stroke-width="0px" x="207" stroke-opacity="0">
        <path fill-rule="evenodd"
            d="M2 4a2 2 0 012-2h6a2 2 0 012 2v11.5a.5.5 0 01-.777.416L7 13.101l-4.223 2.815A.5.5 0 012 15.5V4z"
            stroke="#000000" fill="#F4F4F4" stroke-width="0px" stroke-opacity="0"></path>
        <path fill-rule="evenodd"
            d="M4.268 1H12a1 1 0 011 1v11.768l.223.148A.5.5 0 0014 13.5V2a2 2 0 00-2-2H6a2 2 0 00-1.732 1z"
            stroke="#000000" fill="#F4F4F4" stroke-width="0px" stroke-opacity="0"></path>
    </svg>
</svg>